<svg xmlns="http://www.w3.org/2000/svg" width="26" height="26" fill="none"><path fill="#A6A6A6" d="M21.52 4.002a2.3 2.3 0 0 0-.719.171h-.003c-.22.088-1.262.527-2.846 1.193l-5.68 2.397-8.082 3.412.048-.018s-.276.09-.565.289c-.147.096-.31.229-.45.437a1.3 1.3 0 0 0-.214.855c.069.557.43.891.688 1.075.262.187.511.274.511.274h.006l3.757 1.268c.168.542 1.145 3.758 1.38 4.499.138.443.273.72.441.93q.121.164.292.271a1 1 0 0 0 .19.082l-.04-.01c.012.004.021.013.03.016.03.009.051.012.09.018.595.18 1.073-.19 1.073-.19l.027-.02 2.218-2.025 3.718 2.858.084.036c.776.34 1.56.151 1.975-.183.418-.338.58-.768.58-.768l.027-.07 2.873-14.747c.081-.364.102-.704.012-1.035a1.4 1.4 0 0 0-.6-.808 1.44 1.44 0 0 0-.821-.207m-.079 1.58c-.003.049.007.043-.015.136v.01L18.58 20.32c-.012.02-.033.066-.09.111-.06.048-.108.078-.358-.02l-4.547-3.494-2.747 2.508.577-3.692 7.43-6.938c.306-.286.204-.346.204-.346.021-.35-.463-.103-.463-.103l-9.368 5.815-.003-.015-4.49-1.514v-.003l-.012-.004c.003 0 .024-.009.024-.009l.024-.012.024-.009 8.085-3.412c2.04-.86 4.096-1.728 5.677-2.397 1.581-.665 2.75-1.153 2.816-1.18.063-.024.033-.024.078-.024"/></svg>