<svg xmlns="http://www.w3.org/2000/svg" width="182" height="32" fill="none"><path fill="#fff" d="m7.476.88 6.426 13.188L20.412.88h7.518L17.304 20.536V30.7h-6.846V20.452L0 .88zM36.804 31.12q-3.78 0-6.426-1.596-2.604-1.596-3.99-4.2t-1.386-5.628q0-3.066 1.386-5.67t4.032-4.2 6.384-1.596 6.384 1.596 4.032 4.2 1.386 5.67q0 3.024-1.386 5.628t-4.032 4.2-6.384 1.596M31.89 19.696q0 2.562 1.386 4.158 1.428 1.596 3.528 1.596 2.058 0 3.444-1.596 1.428-1.596 1.428-4.158t-1.428-4.158q-1.386-1.596-3.444-1.596-2.1 0-3.528 1.596-1.386 1.596-1.386 4.158M51.729 22.762V8.65h6.72v12.642q0 4.158 3.066 4.158 1.344 0 2.604-.714 1.26-.756 2.226-2.478V8.65h6.72v14.574q0 1.008.294 1.428.336.42 1.134.462V30.7q-.966.168-1.638.252a10 10 0 0 1-1.218.084q-3.612 0-4.116-2.814l-.126-1.344q-1.512 2.184-3.78 3.234-2.226 1.008-4.998 1.008-3.36 0-5.124-2.142t-1.764-6.216M92.257 14.404q-2.436.042-4.41.798T84.99 17.47V30.7h-6.72V8.65h6.174v4.452q1.134-2.226 2.94-3.486t3.78-1.302q.84 0 1.092.042zM116.92 6.928h-9.072V30.7h-6.888V6.928h-9.114V.88h25.074zM126.382 31.12q-3.78 0-6.426-1.596-2.604-1.596-3.99-4.2t-1.386-5.628q0-3.066 1.386-5.67t4.032-4.2 6.384-1.596 6.384 1.596 4.032 4.2 1.386 5.67q0 3.024-1.386 5.628t-4.032 4.2-6.384 1.596m-4.914-11.424q0 2.562 1.386 4.158 1.428 1.596 3.528 1.596 2.058 0 3.444-1.596 1.428-1.596 1.428-4.158t-1.428-4.158q-1.386-1.596-3.444-1.596-2.1 0-3.528 1.596-1.386 1.596-1.386 4.158M141.307 22.762V8.65h6.72v12.642q0 4.158 3.066 4.158 1.344 0 2.604-.714 1.26-.756 2.226-2.478V8.65h6.72v14.574q0 1.008.294 1.428.336.42 1.134.462V30.7q-.966.168-1.638.252a10 10 0 0 1-1.218.084q-3.612 0-4.116-2.814l-.126-1.344q-1.512 2.184-3.78 3.234-2.226 1.008-4.998 1.008-3.36 0-5.124-2.142t-1.764-6.216M181.835 14.404q-2.436.042-4.41.798t-2.856 2.268V30.7h-6.72V8.65h6.174v4.452q1.134-2.226 2.94-3.486t3.78-1.302q.84 0 1.092.042z"/></svg>